<?xml version="1.0" standalone="no"?>
<svg xmlns="http://www.w3.org/2000/svg" viewBox="0 0 76.512 36" width="76.512" height="36"><g fill="#d6af69" color="#d6af69" transform="translate(0 4.000000000000002) scale(0.2947369)"><svg width="95.0" height="95.0" x="0.0" y="0.0" viewBox="0 0 95 95"><path d="M93.2,60c-0.4-1.2-1.8-2-1.8-2s-0.2-0.6-0.9-1.4c-0.7-0.8-2.8-2.5-3.5-3c-0.8-0.5-1.7-0.8-6.2-1.6  c-9.9-1-13.4-2.3-15-2.9c0.2-0.7-0.3-1.5-0.7-1.8c-0.5-0.3-2.2-1-3.2-1.1c-1-0.1-2.7-1.2-3.3-1.5c-0.7-0.3-1-0.7-1.8-1.1  c-0.7-0.4-2.3-1-3.3-1s-3.7-1.4-4.2-1.8c-0.5-0.4-1.8-1.8-2.9-2.4c-1.1-0.5-2.4-0.9-3.1-1.3c-0.7-0.5-1.2-2.8-1.2-2.9  c0-0.1,0.1-0.7,0-1.2c-0.1-0.5-1.4-2.6-1.7-3.1c-0.3-0.5-1.8-4.3-2-4.8c-0.3-0.5-1.5-3.7-2-4.6c-0.5-1-1.8-2.6-2.7-2.6  c-0.9-0.1-3.9,1.7-4.8,2c-0.9,0.3,0,0-3.6,1.8c-3.4,1.3-8.8,3-11.7,4c-1.5,0.5-2.2,0.6-4.3,1.1C6,27,5.9,28.2,5.9,28.2s-0.5,0.5,0,1  c-0.7,0.3-1,6.1-1,6.1S4.5,35.7,4.1,36c0,0.3-0.3,5.2-0.4,5.5c-0.1,0.3-0.4,0.8-0.9,1.3s0,3.3-0.2,4.1c-0.3,0.1-0.1,0.9,0,1.7  c0.1,0.9-0.1,11.5,0,16.4c0.1,4.8,0.5,4.6,1,5.6c1.8,1.8,5.6,1.6,6.7,1.8c1.2,0.2,14.2,0.1,16.6,0c2.4-0.1,11.5-0.3,12.1-0.3  c0.7,0,13.9,0.3,15.3,0.3c1.4,0,9-0.5,15.6-1.1c6.6-0.7,13-2.1,16.8-3.3c3.7-1.2,5.2-2.6,6.2-3.7C93.8,63.2,93.6,61.2,93.2,60z   M64,59.2c0.4-0.6,0.4-1.1,0.5-1.5c0.3-1.1,0.3-1.1,0.8-2.5c0-0.1,0.1-0.1,0.1-0.2c2.3-2.8,0.3-4.1-0.5-4.5  c-0.2-0.1-0.3-0.3-0.3-0.5v0c0-0.4,0.4-0.7,0.8-0.5c0.5,0.2,1.1,0.4,1.4,0.5c0.5,0.1,2.8,0.8,3.3,0.9c0.5,0.1,3.4,0.6,4.4,0.8  c1,0.2,7.3,1,7.7,1c0.5,0,3,0.8,3.6,1.1c0.6,0.3-0.5,0.7-0.7,0.8c0,0,0,0,0,0c-0.2,0.1-1.2,0.5-2.1,0.7c0,0-4.9,1.1-5.7,1.2  c-0.8,0.1-4,0.7-5.4,0.9c-1.3,0.2-2.2,0.4-3.5,1.8c0,0-0.1,0.1-0.1,0.2c-0.5,1.1-0.9,1.1-0.9,1.1s-0.7,0.2-2,0.1c0,0,0,0-0.1,0  C64.4,60.4,63.7,59.9,64,59.2z M4.8,36.5c0-0.2,0.1-0.3,0.3-0.3c0.5-0.2,1.9-0.7,2.6-0.9c0.9-0.3,16.6-8,21.8-10.5  c5.2-2.5,6.4,2.3,6.4,2.3l1,4.2c0,0,0.9,2.2-8.4,6.1c-7.8,3.3-9.4,7-9.7,8.1c-0.1,0.2-0.2,0.3-0.5,0.3C10.6,45.1,7.4,44,4.6,43.1  c-0.2-0.1-0.3-0.2-0.3-0.4C4.3,40.4,4.7,37.4,4.8,36.5z M3.4,48.3c-0.2-0.8,0.1-2.7,0.1-2.7s-0.2-1.8-0.1-2c0.2-0.3,6.3,2,11.6,2.6  c1.6,0.1,6.2,0.6,9.1-1.2c2.9-1.8,7.5-4.3,7.5-4.3s0.3,2.7,2.2,2.9c1.8,0.2,5,0.4,6.2,0.6c1.2,0.2,2.5,0.9,2.8,1.1  c0.3,0.2,1.8,1.9,2.6,2.5c0.8,0.6,3.2,2.9,4.2,3.3c1,0.4,2.4,1,2.4,1s0.5,4.8-2,10.5c-1,2.2-1,2.2-1,2.2s-14.2-1.3-15.9-1.4  c-1.6-0.1-9.4,0-9.6-0.3c-0.3-0.3-3.7-7.6-3.7-7.6s-0.5-1.6-2.9-2.3C14.5,52.3,3.5,49.2,3.4,48.3z M92.1,63.9  c-0.3,0.5-0.6,1-1.1,1.4c-1.3,1.2-6.5,2.6-12.5,3.8c-6.1,1.2-20.9,1.9-23.7,2.2c-2.9,0.3-12.6,0.1-14.5,0c-1.9-0.1-9.6,0-10.3,0  c-0.7,0-10.1-0.1-12,0c-1.7,0.1-8.1,0-9.9,0c-0.3,0-0.7,0-1-0.1c-0.4-0.1-0.9-0.2-1.4-0.4c-0.9-0.3-1.6-1.1-1.8-2  c0-0.2-0.1-0.3-0.1-0.5c-0.2-1.5-0.1-4.4,0-5.4c0-0.2,0.2-0.3,0.4-0.3C4.6,62.6,5.8,62.8,7,63c1.5,0.3,7.7,0.3,9.4,0.3  c0.3,0,0.6,0,0.8,0.1c1.7,0.2,1,0.2,4.7,0.6c0.2,0,0.4,0,0.5,0c4.4,0,5.8,0.1,13.7,0.6c1.8,0.2,10,0.8,19,1.2  c9,0.4,22.6-1.5,26.3-1.9c3.7-0.4,8.5-2.4,9-2.7c0.3-0.2,0.7-0.5,1-0.7c0.2-0.2,0.5-0.2,0.7,0c0.1,0.1,0.2,0.3,0.2,0.5  C92.8,61.9,92.7,63,92.1,63.9z"></path><circle cx="32" cy="27.3" r="1.1"></circle><circle cx="33.7" cy="31.4" r="1.1"></circle></svg></g><path fill="#154e2f" fill-rule="nonzero" d="M0 18.05L8.40 1.34Q7.90 1.34 7.58 1.32L7.58 1.32L6.24 1.30Q4.03 1.30 4.03 1.82L4.03 1.82Q4.18 1.82 4.31 2.02Q4.44 2.21 4.44 2.59L4.44 2.59Q4.44 3.31 4.00 3.64Q3.55 3.96 3.02 3.96L3.02 3.96Q2.38 3.96 2.09 3.54Q1.80 3.12 1.80 2.54L1.80 2.54Q1.80 1.56 2.59 0.80Q3.38 0.05 4.75 0.05L4.75 0.05L12.98 0.05L4.70 16.49Q5.38 16.49 5.74 16.51L5.74 16.51L7.01 16.54Q8.02 16.54 8.65 16.43Q9.29 16.32 9.50 16.01L9.50 16.01Q9.34 16.01 9.20 15.83Q9.07 15.65 9.07 15.26L9.07 15.26Q9.07 14.54 9.50 14.21Q9.94 13.87 10.51 13.87L10.51 13.87Q11.14 13.87 11.44 14.28Q11.74 14.69 11.74 15.26L11.74 15.26Q11.74 15.89 11.35 16.54Q10.97 17.18 10.26 17.62Q9.55 18.05 8.66 18.05L8.66 18.05L0 18.05ZM17.33 18.48Q15.14 18.48 14.03 17.28Q12.91 16.08 12.91 14.26L12.91 14.26Q12.91 12.96 13.45 11.65Q13.99 10.34 15.00 9.36Q16.01 8.38 17.35 8.04L17.35 8.04Q16.61 7.51 16.25 6.76Q15.89 6.00 15.89 5.16L15.89 5.16Q15.89 3.91 16.57 2.71Q17.26 1.51 18.47 0.76Q19.68 0 21.14 0L21.14 0Q22.66 0 23.62 0.79Q24.58 1.58 24.58 3.00L24.58 3.00Q24.58 4.06 24.05 4.78Q23.52 5.50 22.80 5.50L22.80 5.50Q22.15 5.50 21.67 4.85L21.67 4.85Q22.10 4.70 22.42 4.06Q22.73 3.41 22.73 2.76L22.73 2.76Q22.73 2.06 22.34 1.74Q21.96 1.42 21.41 1.42L21.41 1.42Q20.71 1.42 20.15 1.91Q19.58 2.40 19.27 3.18Q18.96 3.96 18.96 4.80L18.96 4.80Q18.96 5.95 19.56 6.83Q20.16 7.70 21.38 8.02L21.38 8.02Q20.16 8.28 19.18 9.22Q18.19 10.15 17.64 11.39Q17.09 12.62 17.09 13.75L17.09 13.75Q17.09 14.83 17.65 15.50Q18.22 16.18 19.37 16.18L19.37 16.18Q20.57 16.18 21.88 15.52Q23.18 14.86 23.81 13.73L23.81 13.73L24.36 13.97Q23.42 16.03 21.48 17.26Q19.54 18.48 17.33 18.48L17.33 18.48ZM30.43 18.05L32.02 10.66L29.71 1.66Q28.01 2.30 27.07 3.66Q26.14 5.02 26.14 6.98L26.14 6.98Q26.14 7.87 26.30 8.22Q26.47 8.57 26.47 8.62L26.47 8.62Q25.18 8.62 24.54 8.08Q23.90 7.54 23.90 6.29L23.90 6.29Q23.90 4.75 25.16 3.30Q26.42 1.85 28.39 0.95Q30.36 0.05 32.33 0.05L32.33 0.05Q32.66 0.05 33.29 0.10L33.29 0.10L35.38 8.69L38.93 0.17L40.51 0.17L35.86 10.66L34.27 18.05L30.43 18.05Z" transform="translate(36, 8.976)"></path></svg>